# xmcd
#
# Track frame offsets: 
#        150
#        17642
#        34678
#        51570
#        66984
#        82031
#        95804
#        112204
#        128739
#        142716
#        156980
#        169972
#        185911
#        199093
#
# Disc length: 2851 seconds
#
# Revision: 0
# Processed by: cddbd v1.5.2PL0 Copyright (c) Steve Scherf et al.
# Submitted via: ExactAudioCopyFreeDBPlugin 1.0
#
DISCID=d20b210e
DTITLE=Various Artist - Tex Mex ' Por Que Sera
DYEAR=1999
DGENRE=Tex Mex
TTITLE0=Michelle - Por Que Sera
TTITLE1=Lisa Lopez - Dejate De Estar Sufriendo
TTITLE2=Landa Escobar - El Gambler
TTITLE3=Evy Ybarra - Pobre Palomita
TTITLE4=Michelle - Contigo Quiero Estar
TTITLE5=Lisa Lopez - Hablame A Mi
TTITLE6=Landa Escobar - Hay Que Sentimento Traigo
TTITLE7=Dezeo - Señor Cartero
TTITLE8=Michelle - Tomane
TTITLE9=Lisa Lopez - Wrong Time To Love You
TTITLE10=Landa Escobar - Como Pude Enamorarme De Ti
TTITLE11=Janie C Ramirez - Santa Amalia
TTITLE12=Michelle - Quiero Mas
TTITLE13=Lisa Lopez - Dejame Sonar
EXTD=
EXTT0=
EXTT1=
EXTT2=
EXTT3=
EXTT4=
EXTT5=
EXTT6=
EXTT7=
EXTT8=
EXTT9=
EXTT10=
EXTT11=
EXTT12=
EXTT13=
PLAYORDER=
